<?xml version="1.0" encoding="UTF-8"?>
<svg width="40px" height="40px" viewBox="0 0 40 40" version="1.1" xmlns="http://www.w3.org/2000/svg" xmlns:xlink="http://www.w3.org/1999/xlink">
    <!-- Generator: Sketch 56.3 (81716) - https://sketch.com -->
    <title>posts-info</title>
    <desc>Created with Sketch.</desc>
    <g id="posts-info" stroke="none" stroke-width="1" fill="none" fill-rule="evenodd">
        <g id="post" transform="translate(10.000000, 8.000000)" fill-rule="nonzero">
            <polygon id="Path" fill="#005191" points="19.9866706 5.2857672 19.9866706 21.2251185 15.8880702 21.2251185 15.8677059 21.2193795 19.7569239 7.82427431 11.0146993 5.2857672"></polygon>
            <polygon id="Path" fill="#DCEAFA" points="10.1208901 5.02658474 11.0146993 5.2857672 19.7569239 7.82427431 15.8677059 21.2193795 15.3128702 23.1312204 0.00573905213 18.6871668 4.44979265 3.38003555 8.35678318 4.5143291"></polygon>
            <path d="M9.31983118,7.38003555 C8.66817242,7.38003555 8.13981043,6.85167355 8.13981043,6.20001479 L8.13981043,4.62455569 C8.13981043,4.41517327 8.30957493,4.24540877 8.51895735,4.24540877 C8.72833976,4.24540877 8.89810427,4.41517327 8.89810427,4.62455569 L8.89810427,6.20001479 C8.89810427,6.43290877 9.0869372,6.62174171 9.31983118,6.62174171 C9.55291024,6.62174171 9.74174318,6.43290877 9.74174318,6.20001479 L9.74174318,1.18002076 C9.74137294,0.947311896 9.55272512,0.758664076 9.31983118,0.758293839 L9.15969341,0.758293839 C8.92679948,0.758664076 8.73815166,0.947311896 8.73796654,1.18002076 L8.73796654,2.80898251 C8.73796654,3.01836493 8.56820199,3.18812943 8.35881962,3.18812943 C8.1494372,3.18812943 7.9796727,3.01836493 7.9796727,2.80898251 L7.9796727,1.18002076 C7.98041322,0.528732227 8.50821981,0.000740521327 9.15969341,1.16795462e-13 L9.31983118,1.16795462e-13 C9.97130479,0.000740521327 10.4992965,0.528732227 10.500037,1.18002076 L10.500037,6.20001479 C10.4992965,6.85148844 9.97130479,7.37929502 9.31983118,7.38003555 Z" id="Path" fill="#6D7278"></path>
        </g>
    </g>
</svg>